<?xml version="1.0" encoding="UTF-8"?>
<svg xmlns="http://www.w3.org/2000/svg" xmlns:xlink="http://www.w3.org/1999/xlink" width="50pt" height="50pt" viewBox="0 0 50 50" version="1.1">
<g id="surface1">
<path style=" stroke:none;fill-rule:nonzero;fill:#000000;fill-opacity:1;" d="M 9 4 C 6.25 4 4 6.25 4 9 L 4 41 C 4 43.75 6.25 46 9 46 L 41 46 C 43.75 46 46 43.75 46 41 L 46 9 C 46 6.25 43.75 4 41 4 Z M 9 6 L 41 6 C 42.667969 6 44 7.332031 44 9 L 44 41 C 44 42.667969 42.667969 44 41 44 L 9 44 C 7.332031 44 6 42.667969 6 41 L 6 9 C 6 7.332031 7.332031 6 9 6 Z M 20 11 C 15.054688 11 11 15.054688 11 20 L 11 30 C 11 34.945313 15.054688 39 20 39 L 30 39 C 34.945313 39 39 34.945313 39 30 L 39 24 C 39 22.355469 37.644531 21 36 21 L 35 21 C 34.433594 21 34 20.566406 34 20 C 34 15.054688 29.945313 11 25 11 Z M 20 13 L 25 13 C 28.855469 13 32 16.144531 32 20 L 32 21 L 32.417969 21 C 32.859375 22.105469 33.742188 23 35 23 L 36 23 C 36.566406 23 37 23.433594 37 24 L 37 30 C 37 33.855469 33.855469 37 30 37 L 20 37 C 16.144531 37 13 33.855469 13 30 L 13 20 C 13 16.144531 16.144531 13 20 13 Z M 20 17 C 18.355469 17 17 18.355469 17 20 L 17 21 L 17.417969 21 C 17.859375 22.105469 18.742188 23 20 23 L 25 23 C 26.257813 23 27.140625 22.105469 27.582031 21 L 28 21 L 28 20 C 28 18.355469 26.644531 17 25 17 Z M 20 19 L 25 19 C 25.554688 19 26 19.445313 26 20 C 26 20.554688 25.554688 21 25 21 L 20 21 C 19.445313 21 19 20.554688 19 20 C 19 19.445313 19.445313 19 20 19 Z M 20 27 C 18.355469 27 17 28.355469 17 30 L 17 31 L 17.417969 31 C 17.859375 32.105469 18.742188 33 20 33 L 30 33 C 31.257813 33 32.140625 32.105469 32.582031 31 L 33 31 L 33 30 C 33 28.355469 31.644531 27 30 27 Z M 20 29 L 30 29 C 30.554688 29 31 29.445313 31 30 C 31 30.554688 30.554688 31 30 31 L 20 31 C 19.445313 31 19 30.554688 19 30 C 19 29.445313 19.445313 29 20 29 Z "/>
</g>
</svg>
