<svg xmlns="http://www.w3.org/2000/svg" xmlns:xlink="http://www.w3.org/1999/xlink" version="1.1" width="256" height="256" viewBox="0 0 256 256" xml:space="preserve">
<desc>Created with Fabric.js 1.7.22</desc>
<defs>
</defs>
<g transform="translate(128 128) scale(0.72 0.72)" style="">
	<g style="stroke: none; stroke-width: 0; stroke-dasharray: none; stroke-linecap: butt; stroke-linejoin: miter; stroke-miterlimit: 10; fill: none; fill-rule: nonzero; opacity: 1;" transform="translate(-175.05 -175.05000000000004) scale(3.89 3.89)" >
	<path d="M 53.901 50.989 H 36.048 c -1.678 0 -3.034 1.351 -3.034 3.006 c 0 1.632 1.356 3.006 3.034 3.006 h 17.853 c 1.667 0 3.02 -1.373 3.02 -3.006 C 56.921 52.341 55.568 50.989 53.901 50.989 z" style="stroke: none; stroke-width: 1; stroke-dasharray: none; stroke-linecap: butt; stroke-linejoin: miter; stroke-miterlimit: 10; fill: rgb(0,0,0); fill-rule: nonzero; opacity: 1;" transform=" matrix(1 0 0 1 0 0) " stroke-linecap="round" />
	<path d="M 36.048 38.945 h 8.786 c 1.677 0 3.036 -1.373 3.036 -3.021 c 0 -1.655 -1.359 -3.017 -3.036 -3.017 h -8.786 c -1.678 0 -3.034 1.362 -3.034 3.017 C 33.014 37.572 34.37 38.945 36.048 38.945 z" style="stroke: none; stroke-width: 1; stroke-dasharray: none; stroke-linecap: butt; stroke-linejoin: miter; stroke-miterlimit: 10; fill: rgb(0,0,0); fill-rule: nonzero; opacity: 1;" transform=" matrix(1 0 0 1 0 0) " stroke-linecap="round" />
	<path d="M 45 0 C 20.147 0 0 20.147 0 45 c 0 24.853 20.147 45 45 45 s 45 -20.147 45 -45 C 90 20.147 69.853 0 45 0 z M 69.902 54.229 C 69.852 62.898 62.771 70 54.053 70 H 35.846 C 27.128 70 20 62.898 20 54.229 v -18.43 C 20 27.112 27.128 20 35.846 20 h 11.082 c 4.091 0.482 10.047 3.972 12.24 8.615 c 0.604 1.308 0.921 1.509 1.421 5.366 c 0.269 1.992 0.408 3.461 1.299 4.274 c 1.255 1.14 5.916 0.369 6.836 1.091 l 0.708 0.548 l 0.419 0.874 L 70 41.463 L 69.902 54.229 z" style="stroke: none; stroke-width: 1; stroke-dasharray: none; stroke-linecap: butt; stroke-linejoin: miter; stroke-miterlimit: 10; fill: rgb(0,0,0); fill-rule: nonzero; opacity: 1;" transform=" matrix(1 0 0 1 0 0) " stroke-linecap="round" />
</g>
</g>
</svg>