<?xml version="1.0" encoding="UTF-8"?>
<svg xmlns="http://www.w3.org/2000/svg" xmlns:xlink="http://www.w3.org/1999/xlink" width="50pt" height="50pt" viewBox="0 0 50 50" version="1.1">
<g id="surface1">
<path style=" stroke:none;fill-rule:nonzero;fill:#000000;fill-opacity:1;" d="M 9 4 C 6.238281 4 4 6.238281 4 9 L 4 41 C 4 43.761719 6.238281 46 9 46 L 41 46 C 43.761719 46 46 43.761719 46 41 L 46 9 C 46 6.238281 43.761719 4 41 4 Z M 20 12 L 25 12 C 29.421875 12 33.03125 15.632813 33 20.0625 C 32.992188 21.140625 33.917969 22 35 22 L 36 22 C 37.105469 22 38 22.894531 38 24 L 38 30 C 38 34.398438 34.398438 38 30 38 L 20 38 C 15.601563 38 12 34.398438 12 30 L 12 20 C 12 15.601563 15.601563 12 20 12 Z M 20 18 C 18.898438 18 18 18.898438 18 20 C 18 21.101563 18.898438 22 20 22 L 25 22 C 26.101563 22 27 21.101563 27 20 C 27 18.898438 26.101563 18 25 18 Z M 20 28 C 18.898438 28 18 28.898438 18 30 C 18 31.101563 18.898438 32 20 32 L 30 32 C 31.101563 32 32 31.101563 32 30 C 32 28.898438 31.101563 28 30 28 Z "/>
</g>
</svg>
